<?xml version="1.0" encoding="utf-8"?>
<!-- Generator: Adobe Illustrator 24.0.0, SVG Export Plug-In . SVG Version: 6.00 Build 0)  -->
<svg version="1.1" xmlns="http://www.w3.org/2000/svg" xmlns:xlink="http://www.w3.org/1999/xlink" x="0px" y="0px"
	 viewBox="0 0 1920 1080" style="enable-background:new 0 0 1920 1080;" xml:space="preserve">
<style type="text/css">
	.st0{fill:#ECF2F5;}
	.st1{opacity:0.7;}
	.st2{fill:#CFDEE7;}
</style>
<g id="BACKGROUND">
	<rect x="-0.36" y="0.4" class="st0" width="1920" height="1080.51"/>
</g>
<g id="OBJECTS">
	<g>
		<g class="st1">
			<path class="st2" d="M1857.04,552.05c-20.79-5.88-51.53-9.26-77.23-3.2c-1-6.52-2.97-12.89-5.47-18.72
				c-13.14-30.43-42.3-49.84-73.45-58.41c-87.1-23.91-162.77,37.67-234.55,76.67c-43.47,23.6-94.85,44.01-145.1,33.14
				c-32.89-7.11-64.26-31.86-77.08-63.68c22.17-3.43,43.22-12.15,54.93-30.2c14.53-22.4,1.51-62.88-30.15-55.08
				c-33.86,8.34-40.79,51.91-31.84,80.58c-20.71,2.61-41.76,1.13-62.09-3.61C1078.45,487,1016,404.99,957.11,331.85
				c-26.95-33.5-54.55-69.89-91.27-93.29c-14.27-9.1-34.96-17.72-54.83-19.33c-3.25-8.39-7.77-16.09-12.94-22.07
				c-27.54-31.94-72.96-36.59-112.26-30.43c-42.17,6.62-81.55,25.14-116.36,49.46c-77.51,54.19-129.58,134.64-189.8,205.81
				c-30.18,35.65-64.83,73.32-112.42,83.57c-30.18,6.5-64.52-0.64-82.29-23.55c8.42-15.73,15.39-38.93,15.21-56.05
				c-0.15-14.62-20.21-18.6-26-5.18c-6.26,14.49-7,36.75-0.95,51.1c1.64,3.89,3.61,7.44,5.83,10.74
				c-16.37,28-44.62,50.53-73.68,62.24c-32.89,13.25-69.51,16.09-104.34,9.62v4.81c63.14,11.84,131.42-5.7,172.18-59.05
				c3.27-4.27,6.27-8.77,9-13.37c17.13,21.25,46.52,28.69,74.19,25.6c42.68-4.78,77.18-32.25,105.54-62.65
				c32.86-35.19,61.43-74.24,91.68-111.63C511.2,267,580.32,194.57,673.38,174.24c44.5-9.74,101.06-7.08,127.86,35.73
				c1.74,2.79,3.3,5.83,4.68,9c-16.26-0.28-31.53,4.58-41.84,18.28c-15.42,20.54,0.03,59.18,28.85,46.72
				c24.22-10.48,27-36.44,20-59.18c6.73,0.56,13.25,1.82,18.97,3.5c22.27,6.52,41.66,20.41,58.56,35.93
				c34.91,32.12,62.88,71.58,92.8,108.22c54.62,66.92,121.83,135.31,212.28,145.89c13.02,1.51,28.39,1.99,43.52,0.2
				c12.27,31.25,40.84,56,72.68,65.77c42.37,13.02,88.89,0.64,127.99-16.98c43.12-19.44,81.55-47.46,123.75-68.69
				c39.33-19.77,82.65-33.22,126.82-24.19c36.75,7.52,73.37,30.64,83.21,68.94c0.56,2.17,1.02,4.45,1.36,6.75
				c-21.15,6.21-37.95,19.51-41.2,44.16c-0.2,1.51,0.59,2.56,1.97,3.02c14.55,4.99,30.38-2.05,38.46-14.78
				c5.42-8.52,7.06-18.46,6.32-28.39c2.86-0.84,5.75-1.53,8.62-2.12c25.32-5.01,51.68-0.28,75.87,7.75
				c19.26,6.42,37.46,15.57,54.06,27.06v-6.16C1900.03,568.06,1879.11,558.29,1857.04,552.05z M181.82,477.59
				c-4.73-7.49-7.83-16.44-8.69-26.93c-0.92-10.67,1.31-21.25,7.38-29.16c3.94-5.13,12.12-2.58,12.64,3.86
				C194.61,443.77,190.21,461.5,181.82,477.59z M795.18,276.89c-23.37,15.8-40.38-15.73-28.26-34.8
				c8.72-13.73,25.04-17.95,41.1-17.54C814.16,243.14,812.62,265.1,795.18,276.89z M1242.22,512.47c-1.48-4.5-2.61-9.13-3.3-13.86
				c-2.99-20.87,3.58-45.85,22.61-57.39c24.78-15.06,44.52,12.17,37.29,35.34c-7.19,22.94-34.57,32.3-55.88,35.8
				C1242.71,512.42,1242.45,512.44,1242.22,512.47z M1768.33,581.92c-6.93,9.13-18.23,13.76-29.2,11.12
				c3.55-19.18,18.82-30.97,36.29-37.23C1775.85,565.1,1773.98,574.51,1768.33,581.92z"/>
			<path class="st2" d="M1821.65,744.46c-35.57,12.35-76.1,40.84-86.23,79.45c-1.76,0.28-3.48,0.59-5.17,0.95
				c-27.82,5.68-54.11,18.03-80.68,27.72c-26.75,9.77-53.78,18.85-81.24,26.37c-55.83,15.32-114.69,24.63-172.49,16.6
				c-26.75-3.71-54.75-10.48-78.46-23.81c-6.24-3.53-12.89-8.29-18.64-13.89c12.3-3.15,23.86-8.75,31.79-18.46
				c9.82-12.02,12.51-31.97,0.84-43.81c-10.92-11.1-27.36-7.37-38.28,1.64c-12.94,10.72-18.21,26.95-12.45,42.86
				c1.94,5.37,4.76,10.25,8.18,14.68c-9.85,1.61-19.79,1.94-28.05,1.66c-57.74-1.82-110.19-32.4-163.13-52.14
				c-49.79-18.54-101.78-32.76-155-36.19c-50.1-3.2-101.68,3.94-146.69,27.08c-18.57,9.54-37.05,23.14-45.98,42.58
				c-18.8,2.86-37.54,9.95-54.93,15.52c-57.46,18.41-114.05,41.15-173.74,51.5c-53.88,9.33-115.51,10.13-165.2-15.98
				c-6.04-3.17-12.56-7.62-18.34-12.94c11.69-5.37,21.99-13.09,29-24.65c7.44-12.33,8.34-29.33-5.29-37.92
				c-13.48-8.46-30.53,0.77-38.87,12.22c-10.18,14.07-7.34,31.17,2.51,44.65c1.1,1.48,2.25,2.89,3.45,4.27
				c-12.86,4.73-27,6.88-40.1,7.9c-29.38,2.33-58.89-2.15-87.43-8.98c-62.22-14.93-134.13-45.57-200-39.89v5.29
				c54.27-6.16,108.1,13.27,159.29,28.64c50.56,15.19,105.28,28.62,157.81,15.27c4.76-1.23,9.49-2.69,14.04-4.42
				c11.94,11.61,27.98,18.92,43.47,24.29c25.6,8.87,52.65,12.76,79.71,13.07c55.37,0.61,109.32-13.73,161.54-30.79
				c27.9-9.1,55.52-19,83.49-27.87c14.24-4.5,30.89-10.89,47.49-13.99c-5.65,16.09-4.81,35.47,5.86,49.3
				c19.03,24.7,69.71,14.42,62.45-21.63c-4.04-20.13-23.65-32.25-42.91-33.88c-5.68-0.49-11.41-0.33-17.13,0.23
				c9-16.75,25.83-28.9,42.63-37.52c25.29-12.97,53.27-20.89,81.4-24.5c52.73-6.78,106.31,1,157.25,15.04
				c53.4,14.73,102.5,39.48,154.66,57.44c25.09,8.64,51.4,14.91,78.1,14.12c7.19-0.23,14.86-0.9,22.45-2.35
				c7.77,8.34,17.72,14.88,27.72,19.9c45.85,23.02,101.19,27.36,151.57,23.09c55.31-4.68,109.25-20.05,161.44-38.33
				c25.85-9.08,51.12-20,77.18-28.41c7.75-2.48,15.65-4.68,23.68-6.14c-0.08,0.43-0.18,0.87-0.26,1.3
				c-3.09,18.77,3.76,39.36,20.02,50.17c14.32,9.51,32.17,7.26,43.47-5.81c10.61-12.25,10.89-29.15-1.76-39.94
				c-14.5-12.35-35.49-14.14-54.29-11.94c2.81-9.03,7.47-17.72,13.07-25.14c28.44-37.77,76.72-57.87,123.29-57.67
				c14.01,0.05,27.87,2.02,41.22,5.86v-5.22C1887.22,732.22,1853,733.6,1821.65,744.46z M327.89,826.99
				c6.55-8.03,18.95-15.42,29.31-10.23c13.81,6.9,10.92,23.48,3.66,34.06c-6.78,9.85-16.21,16.62-26.83,21.35
				C321.91,859.39,315.11,842.71,327.89,826.99z M789.81,846.04c11.58,5.37,22.07,17.67,21.92,30.97
				c-0.15,13.83-11.69,22.58-24.55,24.04c-26.75,3.02-40.76-23.07-36.98-46.72c0.72-4.35,1.94-8.44,3.55-12.3
				C766.34,840.34,778.71,840.92,789.81,846.04z M1294.72,853.61c-9.87-11.33-15.47-25.5-8.21-40.23
				c4.65-9.46,14.53-18.13,25.27-19.51c16.24-2.07,24.45,14.3,21.46,28.36C1329.35,840.67,1312.78,849.59,1294.72,853.61z
				 M1752.58,827.37c15.19-0.18,36.88,3.45,45.29,17.82c6.42,10.92-0.03,24.24-9.31,31.12c-12.12,9-27.34,5.68-37.49-4.53
				c-12.28-12.35-14.53-28.18-11.07-43.42C1744.16,827.81,1748.36,827.42,1752.58,827.37z"/>
		</g>
	</g>
</g>
<g id="TEXTS">
</g>
</svg>
