<svg xmlns="http://www.w3.org/2000/svg" xmlns:xlink="http://www.w3.org/1999/xlink" width="1080" zoomAndPan="magnify" viewBox="0 0 810 1012.49997" height="1350" preserveAspectRatio="xMidYMid meet" version="1.2"><defs><clipPath id="c3ea67d123"><path d="M 444.707031 314.410156 L 581.617188 314.410156 L 581.617188 420.257812 L 444.707031 420.257812 Z M 444.707031 314.410156 "/></clipPath><clipPath id="4e31577f86"><path d="M 775.9375 393.359375 C 776.507812 400.671875 722.269531 411.457031 721.191406 418.375 C 718.304688 436.882812 706.433594 455.460938 691.195312 467.234375 C 678.203125 477.277344 663.089844 485.050781 645.128906 486.320312 C 627.84375 487.539062 599.804688 483.507812 573.734375 458.742188 C 535.140625 422.082031 465.125 428.714844 462.945312 400.742188 C 462.769531 398.488281 442.257812 348.789062 441.671875 346.644531 C 399.863281 193.523438 592.652344 257.554688 637.007812 254.433594 C 683.730469 251.140625 772.476562 348.949219 775.9375 393.359375 Z M 775.9375 393.359375 "/></clipPath><clipPath id="e73a79dbb8"><path d="M 443.484375 313.183594 L 582.84375 313.183594 L 582.84375 421.484375 L 443.484375 421.484375 Z M 443.484375 313.183594 "/></clipPath><clipPath id="3d8df17c13"><path d="M 775.9375 393.359375 C 776.507812 400.671875 722.269531 411.457031 721.191406 418.375 C 718.304688 436.882812 706.433594 455.460938 691.195312 467.234375 C 678.203125 477.277344 663.089844 485.050781 645.128906 486.320312 C 627.84375 487.539062 599.804688 483.507812 573.734375 458.742188 C 535.140625 422.082031 465.125 428.714844 462.945312 400.742188 C 462.769531 398.488281 442.257812 348.789062 441.671875 346.644531 C 399.863281 193.523438 592.652344 257.554688 637.007812 254.433594 C 683.730469 251.140625 772.476562 348.949219 775.9375 393.359375 Z M 775.9375 393.359375 "/></clipPath><clipPath id="bc5acebbc7"><path d="M 548.105469 325.035156 L 725.472656 325.035156 L 725.472656 486.875 L 548.105469 486.875 Z M 548.105469 325.035156 "/></clipPath><clipPath id="61e26de198"><path d="M 775.9375 393.359375 C 776.507812 400.671875 722.269531 411.457031 721.191406 418.375 C 718.304688 436.882812 706.433594 455.460938 691.195312 467.234375 C 678.203125 477.277344 663.089844 485.050781 645.128906 486.320312 C 627.84375 487.539062 599.804688 483.507812 573.734375 458.742188 C 535.140625 422.082031 465.125 428.714844 462.945312 400.742188 C 462.769531 398.488281 442.257812 348.789062 441.671875 346.644531 C 399.863281 193.523438 592.652344 257.554688 637.007812 254.433594 C 683.730469 251.140625 772.476562 348.949219 775.9375 393.359375 Z M 775.9375 393.359375 "/></clipPath><clipPath id="b63db7ec3c"><path d="M 546.46875 323.402344 L 726.699219 323.402344 L 726.699219 486.875 L 546.46875 486.875 Z M 546.46875 323.402344 "/></clipPath><clipPath id="88498345ad"><path d="M 775.9375 393.359375 C 776.507812 400.671875 722.269531 411.457031 721.191406 418.375 C 718.304688 436.882812 706.433594 455.460938 691.195312 467.234375 C 678.203125 477.277344 663.089844 485.050781 645.128906 486.320312 C 627.84375 487.539062 599.804688 483.507812 573.734375 458.742188 C 535.140625 422.082031 465.125 428.714844 462.945312 400.742188 C 462.769531 398.488281 442.257812 348.789062 441.671875 346.644531 C 399.863281 193.523438 592.652344 257.554688 637.007812 254.433594 C 683.730469 251.140625 772.476562 348.949219 775.9375 393.359375 Z M 775.9375 393.359375 "/></clipPath><clipPath id="fe1f1d31b5"><path d="M 554 378.164062 L 640.875 378.164062 L 640.875 448.457031 L 554 448.457031 Z M 554 378.164062 "/></clipPath><clipPath id="760f0a3de7"><path d="M 775.9375 393.359375 C 776.507812 400.671875 722.269531 411.457031 721.191406 418.375 C 718.304688 436.882812 706.433594 455.460938 691.195312 467.234375 C 678.203125 477.277344 663.089844 485.050781 645.128906 486.320312 C 627.84375 487.539062 599.804688 483.507812 573.734375 458.742188 C 535.140625 422.082031 465.125 428.714844 462.945312 400.742188 C 462.769531 398.488281 442.257812 348.789062 441.671875 346.644531 C 399.863281 193.523438 592.652344 257.554688 637.007812 254.433594 C 683.730469 251.140625 772.476562 348.949219 775.9375 393.359375 Z M 775.9375 393.359375 "/></clipPath><clipPath id="552d5e225e"><path d="M 583.25 393.285156 L 721.796875 393.285156 L 721.796875 461.535156 L 583.25 461.535156 Z M 583.25 393.285156 "/></clipPath><clipPath id="4cabe58467"><path d="M 775.9375 393.359375 C 776.507812 400.671875 722.269531 411.457031 721.191406 418.375 C 718.304688 436.882812 706.433594 455.460938 691.195312 467.234375 C 678.203125 477.277344 663.089844 485.050781 645.128906 486.320312 C 627.84375 487.539062 599.804688 483.507812 573.734375 458.742188 C 535.140625 422.082031 465.125 428.714844 462.945312 400.742188 C 462.769531 398.488281 442.257812 348.789062 441.671875 346.644531 C 399.863281 193.523438 592.652344 257.554688 637.007812 254.433594 C 683.730469 251.140625 772.476562 348.949219 775.9375 393.359375 Z M 775.9375 393.359375 "/></clipPath><clipPath id="0682515602"><path d="M 581.617188 392 L 723 392 L 723 462.761719 L 581.617188 462.761719 Z M 581.617188 392 "/></clipPath><clipPath id="572aa77254"><path d="M 775.9375 393.359375 C 776.507812 400.671875 722.269531 411.457031 721.191406 418.375 C 718.304688 436.882812 706.433594 455.460938 691.195312 467.234375 C 678.203125 477.277344 663.089844 485.050781 645.128906 486.320312 C 627.84375 487.539062 599.804688 483.507812 573.734375 458.742188 C 535.140625 422.082031 465.125 428.714844 462.945312 400.742188 C 462.769531 398.488281 442.257812 348.789062 441.671875 346.644531 C 399.863281 193.523438 592.652344 257.554688 637.007812 254.433594 C 683.730469 251.140625 772.476562 348.949219 775.9375 393.359375 Z M 775.9375 393.359375 "/></clipPath><clipPath id="9edf84d4a7"><path d="M 603 252 L 658 252 L 658 311.957031 L 603 311.957031 Z M 603 252 "/></clipPath><clipPath id="a581e7db2b"><path d="M 775.9375 393.359375 C 776.507812 400.671875 722.269531 411.457031 721.191406 418.375 C 718.304688 436.882812 706.433594 455.460938 691.195312 467.234375 C 678.203125 477.277344 663.089844 485.050781 645.128906 486.320312 C 627.84375 487.539062 599.804688 483.507812 573.734375 458.742188 C 535.140625 422.082031 465.125 428.714844 462.945312 400.742188 C 462.769531 398.488281 442.257812 348.789062 441.671875 346.644531 C 399.863281 193.523438 592.652344 257.554688 637.007812 254.433594 C 683.730469 251.140625 772.476562 348.949219 775.9375 393.359375 Z M 775.9375 393.359375 "/></clipPath><clipPath id="74287f5d19"><path d="M 606.546875 269.457031 L 649.457031 269.457031 L 649.457031 331.984375 L 606.546875 331.984375 Z M 606.546875 269.457031 "/></clipPath><clipPath id="90a7dbdcbd"><path d="M 775.9375 393.359375 C 776.507812 400.671875 722.269531 411.457031 721.191406 418.375 C 718.304688 436.882812 706.433594 455.460938 691.195312 467.234375 C 678.203125 477.277344 663.089844 485.050781 645.128906 486.320312 C 627.84375 487.539062 599.804688 483.507812 573.734375 458.742188 C 535.140625 422.082031 465.125 428.714844 462.945312 400.742188 C 462.769531 398.488281 442.257812 348.789062 441.671875 346.644531 C 399.863281 193.523438 592.652344 257.554688 637.007812 254.433594 C 683.730469 251.140625 772.476562 348.949219 775.9375 393.359375 Z M 775.9375 393.359375 "/></clipPath><clipPath id="2b2c78f0c7"><path d="M 605.320312 268.230469 L 650.683594 268.230469 L 650.683594 333.210938 L 605.320312 333.210938 Z M 605.320312 268.230469 "/></clipPath><clipPath id="969b16692a"><path d="M 775.9375 393.359375 C 776.507812 400.671875 722.269531 411.457031 721.191406 418.375 C 718.304688 436.882812 706.433594 455.460938 691.195312 467.234375 C 678.203125 477.277344 663.089844 485.050781 645.128906 486.320312 C 627.84375 487.539062 599.804688 483.507812 573.734375 458.742188 C 535.140625 422.082031 465.125 428.714844 462.945312 400.742188 C 462.769531 398.488281 442.257812 348.789062 441.671875 346.644531 C 399.863281 193.523438 592.652344 257.554688 637.007812 254.433594 C 683.730469 251.140625 772.476562 348.949219 775.9375 393.359375 Z M 775.9375 393.359375 "/></clipPath><clipPath id="6d358071f9"><path d="M 618.808594 301 L 633 301 L 633 311 L 618.808594 311 Z M 618.808594 301 "/></clipPath><clipPath id="054560ea2b"><path d="M 775.9375 393.359375 C 776.507812 400.671875 722.269531 411.457031 721.191406 418.375 C 718.304688 436.882812 706.433594 455.460938 691.195312 467.234375 C 678.203125 477.277344 663.089844 485.050781 645.128906 486.320312 C 627.84375 487.539062 599.804688 483.507812 573.734375 458.742188 C 535.140625 422.082031 465.125 428.714844 462.945312 400.742188 C 462.769531 398.488281 442.257812 348.789062 441.671875 346.644531 C 399.863281 193.523438 592.652344 257.554688 637.007812 254.433594 C 683.730469 251.140625 772.476562 348.949219 775.9375 393.359375 Z M 775.9375 393.359375 "/></clipPath><clipPath id="85ac537655"><path d="M 458 571 L 673.898438 571 L 673.898438 716.234375 L 458 716.234375 Z M 458 571 "/></clipPath><clipPath id="3ada7f6a2b"><path d="M 418.023438 566.046875 L 559 566.046875 L 559 716.234375 L 418.023438 716.234375 Z M 418.023438 566.046875 "/></clipPath></defs><g id="94f328c880"><path style=" stroke:none;fill-rule:nonzero;fill:#caddff;fill-opacity:1;" d="M 328.96875 265.921875 C 312.761719 270.972656 240.859375 294.449219 169.0625 356.75 C 151.671875 371.839844 81.367188 432.839844 51.332031 514.847656 C 0.207031 654.4375 61.382812 866.800781 237.59375 952.140625 C 442.84375 1051.550781 702.105469 929.195312 761.242188 765.453125 C 787.464844 692.828125 788.640625 572.394531 722.582031 492.980469 C 669.40625 429.070312 578.484375 398.703125 582 338.246094 C 583.703125 309.128906 605.671875 301.082031 599.574219 282.746094 C 585.121094 239.25 443.492188 230.226562 328.96875 265.921875 "/><path style=" stroke:none;fill-rule:nonzero;fill:#000000;fill-opacity:1;" d="M 649.320312 957.140625 C 648.851562 957.140625 648.398438 956.902344 648.148438 956.464844 C 647.78125 955.820312 648.003906 955 648.644531 954.632812 C 655.582031 950.660156 662.433594 946.34375 669.011719 941.804688 C 669.625 941.382812 670.464844 941.535156 670.882812 942.144531 C 671.304688 942.757812 671.152344 943.59375 670.539062 944.015625 C 663.898438 948.601562 656.988281 952.957031 649.984375 956.964844 C 649.777344 957.085938 649.546875 957.140625 649.320312 957.140625 "/><path style=" stroke:none;fill-rule:nonzero;fill:#000000;fill-opacity:1;" d="M 669.785156 944.253906 C 669.351562 944.253906 668.933594 944.050781 668.671875 943.671875 C 668.25 943.0625 668.40625 942.226562 669.011719 941.804688 C 692.5 925.585938 713.472656 905.910156 731.351562 883.304688 C 742.527344 869.175781 752.398438 853.996094 760.703125 838.179688 C 761.046875 837.523438 761.859375 837.269531 762.511719 837.613281 C 763.171875 837.960938 763.429688 838.769531 763.082031 839.429688 C 754.703125 855.390625 744.738281 870.714844 733.460938 884.976562 C 715.417969 907.785156 694.246094 927.648438 670.542969 944.015625 C 670.308594 944.175781 670.042969 944.253906 669.785156 944.253906 "/><path style=" stroke:none;fill-rule:nonzero;fill:#000000;fill-opacity:1;" d="M 650.554688 986.914062 C 650.070312 986.914062 649.605469 986.65625 649.363281 986.203125 C 649.015625 985.546875 649.261719 984.730469 649.921875 984.386719 C 653.605469 982.421875 657.285156 980.359375 660.875 978.253906 C 661.511719 977.878906 662.339844 978.09375 662.714844 978.730469 C 663.089844 979.375 662.875 980.195312 662.234375 980.574219 C 658.617188 982.695312 654.894531 984.777344 651.183594 986.757812 C 650.984375 986.867188 650.765625 986.914062 650.554688 986.914062 "/><path style=" stroke:none;fill-rule:nonzero;fill:#000000;fill-opacity:1;" d="M 661.5625 980.757812 C 661.097656 980.757812 660.648438 980.523438 660.394531 980.09375 C 660.019531 979.457031 660.234375 978.628906 660.875 978.253906 C 693.367188 959.183594 721.753906 934.464844 745.238281 904.773438 C 758.664062 887.796875 770.273438 869.414062 779.738281 850.136719 C 780.0625 849.464844 780.867188 849.191406 781.535156 849.519531 C 782.207031 849.84375 782.480469 850.65625 782.152344 851.320312 C 772.601562 870.769531 760.890625 889.316406 747.351562 906.441406 C 723.652344 936.394531 695.015625 961.339844 662.238281 980.574219 C 662.023438 980.699219 661.789062 980.757812 661.5625 980.757812 "/><path style=" stroke:none;fill-rule:nonzero;fill:#99b9ff;fill-opacity:1;" d="M 292.351562 481.609375 C 269.890625 487.761719 246.691406 474.527344 240.542969 452.050781 C 234.390625 429.570312 247.613281 406.355469 270.078125 400.199219 C 292.542969 394.046875 315.742188 407.277344 321.890625 429.757812 C 328.039062 452.238281 314.816406 475.453125 292.351562 481.609375 Z M 365.117188 426.414062 L 360.792969 410.601562 L 342.917969 411.414062 C 341.261719 407.933594 339.339844 404.628906 337.175781 401.542969 L 346.636719 386.375 L 334.988281 374.84375 L 319.910156 384.492188 C 316.773438 382.335938 313.460938 380.453125 310.007812 378.84375 L 310.628906 360.941406 L 294.78125 356.789062 L 286.554688 372.664062 C 282.796875 372.375 278.980469 372.402344 275.140625 372.746094 L 266.734375 356.941406 L 250.933594 361.269531 L 251.746094 379.15625 C 248.269531 380.816406 244.96875 382.734375 241.882812 384.902344 L 226.722656 375.4375 L 215.203125 387.09375 L 224.847656 402.183594 C 222.695312 405.320312 220.804688 408.632812 219.199219 412.089844 L 201.3125 411.46875 L 197.160156 427.328125 L 213.027344 435.558594 C 212.730469 439.320312 212.761719 443.140625 213.109375 446.984375 L 197.3125 455.390625 L 201.640625 471.203125 L 219.515625 470.390625 C 221.171875 473.875 223.089844 477.171875 225.257812 480.265625 L 215.796875 495.433594 L 227.441406 506.964844 L 242.519531 497.3125 C 245.65625 499.464844 248.96875 501.359375 252.421875 502.964844 L 251.804688 520.859375 L 267.652344 525.019531 L 275.875 509.144531 C 279.636719 509.433594 283.453125 509.40625 287.289062 509.058594 L 295.695312 524.863281 L 311.496094 520.535156 L 310.683594 502.648438 C 314.167969 500.988281 317.464844 499.070312 320.550781 496.902344 L 335.707031 506.371094 L 347.226562 494.714844 L 337.582031 479.628906 C 339.738281 476.484375 341.625 473.171875 343.234375 469.714844 L 361.117188 470.335938 L 365.269531 454.476562 L 349.40625 446.246094 C 349.699219 442.484375 349.667969 438.664062 349.320312 434.824219 L 365.117188 426.414062 "/><path style=" stroke:none;fill-rule:nonzero;fill:#000000;fill-opacity:1;" d="M 65.507812 431.105469 C 65.265625 431.105469 65.019531 431.042969 64.800781 430.90625 C 64.167969 430.511719 63.976562 429.683594 64.363281 429.050781 C 111.574219 352.941406 167.652344 312.878906 206.378906 292.671875 C 248.394531 270.75 279.710938 266.792969 280.023438 266.757812 C 280.757812 266.65625 281.429688 267.195312 281.519531 267.929688 C 281.605469 268.671875 281.082031 269.339844 280.34375 269.429688 C 280.035156 269.46875 249.105469 273.386719 207.5 295.121094 C 169.105469 315.175781 113.503906 354.9375 66.652344 430.472656 C 66.398438 430.882812 65.957031 431.105469 65.507812 431.105469 "/><path style=" stroke:none;fill-rule:nonzero;fill:#000000;fill-opacity:1;" d="M 85.9375 435.679688 C 85.699219 435.679688 85.457031 435.609375 85.238281 435.476562 C 84.605469 435.089844 84.40625 434.261719 84.792969 433.632812 C 116.230469 382.082031 152.761719 356.035156 153.128906 355.777344 C 153.734375 355.347656 154.574219 355.496094 155 356.101562 C 155.429688 356.707031 155.285156 357.550781 154.675781 357.980469 C 154.316406 358.230469 118.214844 383.992188 87.089844 435.03125 C 86.835938 435.445312 86.390625 435.679688 85.9375 435.679688 "/><path style=" stroke:none;fill-rule:nonzero;fill:#000000;fill-opacity:1;" d="M 363.402344 343.039062 C 362.855469 343.039062 362.335938 342.695312 362.140625 342.144531 L 359.339844 334.378906 C 359.089844 333.679688 359.453125 332.910156 360.152344 332.65625 C 360.847656 332.40625 361.621094 332.769531 361.875 333.464844 L 364.667969 341.238281 C 364.921875 341.9375 364.558594 342.707031 363.859375 342.953125 C 363.707031 343.007812 363.558594 343.039062 363.402344 343.039062 "/><path style=" stroke:none;fill-rule:nonzero;fill:#000000;fill-opacity:1;" d="M 369.921875 361.132812 C 369.367188 361.132812 368.855469 360.792969 368.652344 360.246094 L 365.859375 352.472656 C 365.605469 351.78125 365.96875 351.007812 366.667969 350.753906 C 367.367188 350.507812 368.136719 350.863281 368.390625 351.5625 L 371.183594 359.335938 C 371.4375 360.035156 371.074219 360.804688 370.375 361.058594 C 370.226562 361.109375 370.074219 361.132812 369.921875 361.132812 "/><path style=" stroke:none;fill-rule:nonzero;fill:#000000;fill-opacity:1;" d="M 354.367188 352.128906 C 353.816406 352.128906 353.300781 351.789062 353.101562 351.238281 C 352.851562 350.539062 353.214844 349.769531 353.910156 349.519531 L 360.453125 347.164062 C 361.15625 346.910156 361.925781 347.273438 362.175781 347.972656 C 362.425781 348.671875 362.0625 349.441406 361.367188 349.691406 L 354.820312 352.046875 C 354.675781 352.105469 354.519531 352.128906 354.367188 352.128906 "/><path style=" stroke:none;fill-rule:nonzero;fill:#000000;fill-opacity:1;" d="M 369.613281 346.636719 C 369.0625 346.636719 368.546875 346.292969 368.34375 345.75 C 368.097656 345.050781 368.457031 344.28125 369.15625 344.03125 L 375.699219 341.671875 C 376.394531 341.421875 377.167969 341.78125 377.417969 342.480469 C 377.671875 343.179688 377.308594 343.949219 376.609375 344.203125 L 370.066406 346.558594 C 369.914062 346.613281 369.761719 346.636719 369.613281 346.636719 "/><path style=" stroke:none;fill-rule:nonzero;fill:#36a8e9;fill-opacity:1;" d="M 663.023438 897.105469 C 655.625 897.105469 647.753906 895.078125 639.472656 891.03125 C 635.914062 889.292969 634.4375 884.996094 636.179688 881.4375 C 637.917969 877.878906 642.214844 876.402344 645.773438 878.144531 C 657.167969 883.714844 666.640625 884.222656 674.742188 879.695312 C 689.855469 871.246094 701.601562 845.679688 710.667969 801.53125 C 719.070312 760.613281 724.113281 708.425781 728.984375 657.960938 C 729.578125 651.796875 730.175781 645.632812 730.773438 639.488281 C 731.160156 635.546875 734.660156 632.652344 738.609375 633.050781 C 742.554688 633.433594 745.433594 636.941406 745.050781 640.882812 C 744.453125 647.023438 743.859375 653.179688 743.261719 659.335938 C 732.84375 767.234375 723.003906 869.140625 681.738281 892.214844 C 675.90625 895.476562 669.65625 897.105469 663.023438 897.105469 "/><path style=" stroke:none;fill-rule:nonzero;fill:#000000;fill-opacity:1;" d="M 665.613281 912.328125 L 583.667969 912.328125 C 579.75 912.328125 576.578125 909.152344 576.578125 905.238281 L 576.578125 873.855469 C 576.578125 869.941406 579.75 866.765625 583.667969 866.765625 L 665.613281 866.765625 C 669.527344 866.765625 672.703125 869.941406 672.703125 873.855469 L 672.703125 905.238281 C 672.703125 909.152344 669.527344 912.328125 665.613281 912.328125 "/><path style=" stroke:none;fill-rule:nonzero;fill:#000000;fill-opacity:1;" d="M 751.488281 665.355469 L 726.785156 662.703125 C 723.699219 662.371094 721.464844 659.601562 721.796875 656.519531 L 733.566406 547.027344 C 733.898438 543.9375 736.664062 541.707031 739.746094 542.039062 L 764.445312 544.695312 C 767.53125 545.027344 769.761719 547.792969 769.429688 550.875 L 757.664062 660.375 C 757.335938 663.453125 754.570312 665.6875 751.488281 665.355469 "/><path style=" stroke:none;fill-rule:nonzero;fill:#000000;fill-opacity:1;" d="M 749.304688 566.351562 C 744.902344 566.351562 741.304688 562.816406 741.242188 558.394531 C 738.789062 384.519531 606.882812 308.480469 484.25 295.300781 C 339.140625 279.703125 169.773438 346.429688 137.558594 485.105469 C 136.546875 489.445312 132.210938 492.140625 127.871094 491.132812 C 123.53125 490.125 120.828125 485.789062 121.839844 481.449219 C 130.007812 446.285156 146.664062 414.085938 171.347656 385.75 C 194.3125 359.386719 223.617188 336.996094 258.449219 319.210938 C 324.675781 285.394531 407.609375 270.828125 485.976562 279.253906 C 521.90625 283.113281 555.910156 291.574219 587.039062 304.386719 C 619.96875 317.933594 648.96875 336.101562 673.242188 358.367188 C 699.253906 382.230469 719.601562 410.628906 733.707031 442.769531 C 748.816406 477.199219 756.777344 516.03125 757.375 558.175781 C 757.4375 562.625 753.878906 566.289062 749.425781 566.351562 C 749.382812 566.351562 749.347656 566.351562 749.304688 566.351562 "/><path style=" stroke:none;fill-rule:nonzero;fill:#ffffff;fill-opacity:1;" d="M 659.386719 854.628906 L 141.175781 866.636719 C 125.511719 867 114.992188 854.082031 117.675781 837.777344 L 176.410156 481.328125 C 179.09375 465.03125 193.972656 451.519531 209.636719 451.15625 L 727.84375 439.148438 C 743.507812 438.785156 754.027344 451.707031 751.34375 468.007812 L 692.609375 824.460938 C 689.925781 840.757812 675.046875 854.265625 659.386719 854.628906 "/><path style=" stroke:none;fill-rule:nonzero;fill:#caddff;fill-opacity:1;" d="M 138.695312 845.238281 C 138.472656 845.242188 138.28125 845.238281 138.113281 845.226562 C 138.089844 844.757812 138.109375 844.117188 138.242188 843.304688 L 196.976562 486.859375 C 198.140625 479.792969 205.640625 472.710938 212.117188 472.5625 L 730.324219 460.554688 C 730.542969 460.550781 730.730469 460.550781 730.902344 460.5625 C 730.925781 461.03125 730.90625 461.671875 730.773438 462.484375 L 672.039062 818.933594 C 670.871094 825.996094 663.375 833.078125 656.902344 833.230469 L 138.695312 845.238281 "/><path style=" stroke:none;fill-rule:nonzero;fill:#000000;fill-opacity:1;" d="M 140.53125 867.988281 C 133.109375 867.988281 126.542969 865.121094 121.980469 859.875 C 116.9375 854.066406 114.9375 846.140625 116.351562 837.558594 L 175.082031 481.105469 C 177.867188 464.226562 193.351562 450.1875 209.605469 449.8125 L 500.796875 443.0625 C 500.804688 443.0625 500.816406 443.0625 500.832031 443.0625 C 501.558594 443.0625 502.15625 443.644531 502.171875 444.375 C 502.195312 445.117188 501.605469 445.738281 500.859375 445.753906 L 209.667969 452.5 C 194.644531 452.847656 180.320312 465.875 177.738281 481.546875 L 119.003906 837.996094 C 117.722656 845.773438 119.5 852.917969 124.011719 858.109375 C 128.175781 862.898438 134.261719 865.46875 141.144531 865.289062 L 659.355469 853.28125 C 674.375 852.933594 688.703125 839.90625 691.289062 824.238281 L 750.015625 467.789062 C 751.304688 460.011719 749.523438 452.863281 745.011719 447.671875 C 740.84375 442.882812 734.777344 440.304688 727.878906 440.492188 L 670.292969 441.828125 C 669.585938 441.824219 668.929688 441.253906 668.914062 440.511719 C 668.902344 439.773438 669.484375 439.15625 670.222656 439.136719 L 727.8125 437.804688 C 735.519531 437.621094 742.347656 440.503906 747.039062 445.910156 C 752.085938 451.71875 754.085938 459.644531 752.675781 468.226562 L 693.9375 824.675781 C 691.15625 841.558594 675.671875 855.597656 659.414062 855.972656 L 141.207031 867.980469 C 140.984375 867.988281 140.757812 867.988281 140.53125 867.988281 "/><path style=" stroke:none;fill-rule:nonzero;fill:#99b9ff;fill-opacity:1;" d="M 680.191406 595.988281 C 686.335938 595.988281 690.265625 601.3125 688.96875 607.871094 L 672.828125 689.636719 C 671.527344 696.199219 665.496094 701.519531 659.355469 701.519531 L 448.316406 701.519531 C 442.171875 701.519531 438.242188 696.199219 439.535156 689.636719 L 455.679688 607.871094 C 456.976562 601.3125 463.003906 595.988281 469.152344 595.988281 L 680.191406 595.988281 "/><path style=" stroke:none;fill-rule:nonzero;fill:#000000;fill-opacity:1;" d="M 451.097656 632.445312 C 451.011719 632.445312 450.921875 632.4375 450.835938 632.421875 C 450.101562 632.28125 449.628906 631.574219 449.777344 630.839844 L 454.363281 607.609375 C 455.773438 600.460938 462.40625 594.644531 469.152344 594.644531 L 510.785156 594.644531 C 511.527344 594.644531 512.128906 595.246094 512.128906 595.988281 C 512.128906 596.730469 511.527344 597.335938 510.785156 597.335938 L 469.152344 597.335938 C 463.625 597.335938 458.175781 602.175781 457 608.128906 L 452.414062 631.363281 C 452.285156 632.007812 451.726562 632.445312 451.097656 632.445312 "/><path style=" stroke:none;fill-rule:nonzero;fill:#000000;fill-opacity:1;" d="M 456.480469 702.863281 L 448.316406 702.863281 C 445.113281 702.863281 442.289062 701.578125 440.371094 699.242188 C 438.273438 696.683594 437.488281 693.085938 438.21875 689.378906 L 442.917969 665.5625 C 443.066406 664.835938 443.769531 664.359375 444.5 664.503906 C 445.226562 664.648438 445.703125 665.355469 445.558594 666.085938 L 440.859375 689.894531 C 440.285156 692.820312 440.863281 695.601562 442.449219 697.535156 C 443.847656 699.234375 445.929688 700.171875 448.316406 700.171875 L 456.480469 700.171875 C 457.21875 700.171875 457.824219 700.773438 457.824219 701.519531 C 457.824219 702.257812 457.21875 702.863281 456.480469 702.863281 "/><path style=" stroke:none;fill-rule:nonzero;fill:#000000;fill-opacity:1;" d="M 476.0625 702.863281 L 463.960938 702.863281 C 463.21875 702.863281 462.617188 702.257812 462.617188 701.519531 C 462.617188 700.773438 463.21875 700.171875 463.960938 700.171875 L 476.0625 700.171875 C 476.804688 700.171875 477.40625 700.773438 477.40625 701.519531 C 477.40625 702.257812 476.804688 702.863281 476.0625 702.863281 "/><path style=" stroke:none;fill-rule:nonzero;fill:#000000;fill-opacity:1;" d="M 574.0625 702.863281 L 545.09375 702.863281 C 544.351562 702.863281 543.746094 702.261719 543.746094 701.519531 C 543.746094 700.773438 544.351562 700.167969 545.09375 700.167969 L 574.0625 700.167969 C 574.808594 700.167969 575.40625 700.773438 575.40625 701.519531 C 575.40625 702.261719 574.808594 702.863281 574.0625 702.863281 "/><path style=" stroke:none;fill-rule:nonzero;fill:#000000;fill-opacity:1;" d="M 659.359375 702.863281 L 624.433594 702.863281 C 623.6875 702.863281 623.085938 702.257812 623.085938 701.519531 C 623.085938 700.773438 623.6875 700.167969 624.433594 700.167969 L 659.359375 700.167969 C 664.882812 700.167969 670.335938 695.328125 671.511719 689.371094 L 672.253906 685.617188 C 672.398438 684.886719 673.105469 684.414062 673.828125 684.558594 C 674.5625 684.699219 675.035156 685.40625 674.890625 686.132812 L 674.148438 689.894531 C 672.742188 697.042969 666.101562 702.863281 659.359375 702.863281 "/><path style=" stroke:none;fill-rule:nonzero;fill:#000000;fill-opacity:1;" d="M 610.066406 627.285156 L 471.652344 627.285156 C 470.90625 627.285156 470.308594 626.683594 470.308594 625.941406 C 470.308594 625.199219 470.90625 624.597656 471.652344 624.597656 L 610.066406 624.597656 C 610.8125 624.597656 611.410156 625.199219 611.410156 625.941406 C 611.410156 626.683594 610.8125 627.285156 610.066406 627.285156 "/><path style=" stroke:none;fill-rule:nonzero;fill:#000000;fill-opacity:1;" d="M 610.664062 651.21875 L 587.019531 651.21875 C 586.277344 651.21875 585.671875 650.621094 585.671875 649.878906 C 585.671875 649.132812 586.277344 648.53125 587.019531 648.53125 L 610.664062 648.53125 C 611.410156 648.53125 612.011719 649.132812 612.011719 649.878906 C 612.011719 650.621094 611.410156 651.21875 610.664062 651.21875 "/><path style=" stroke:none;fill-rule:nonzero;fill:#000000;fill-opacity:1;" d="M 577.164062 651.222656 L 471.40625 651.222656 C 470.660156 651.222656 470.066406 650.625 470.066406 649.878906 C 470.066406 649.136719 470.660156 648.535156 471.40625 648.535156 L 577.164062 648.535156 C 577.910156 648.535156 578.511719 649.136719 578.511719 649.878906 C 578.511719 650.625 577.910156 651.222656 577.164062 651.222656 "/><path style=" stroke:none;fill-rule:nonzero;fill:#000000;fill-opacity:1;" d="M 599.878906 673.636719 L 489.632812 673.636719 C 488.894531 673.636719 488.289062 673.03125 488.289062 672.289062 C 488.289062 671.554688 488.894531 670.949219 489.632812 670.949219 L 599.878906 670.949219 C 600.621094 670.949219 601.21875 671.554688 601.21875 672.289062 C 601.21875 673.03125 600.621094 673.636719 599.878906 673.636719 "/><path style=" stroke:none;fill-rule:nonzero;fill:#caddff;fill-opacity:1;" d="M 666.40625 642.035156 C 665.988281 656.890625 653.613281 668.929688 638.761719 668.929688 C 623.90625 668.929688 612.199219 656.890625 612.613281 642.035156 C 613.023438 627.183594 625.398438 615.140625 640.257812 615.140625 C 655.105469 615.140625 666.816406 627.183594 666.40625 642.035156 "/><path style=" stroke:none;fill-rule:nonzero;fill:#ffffff;fill-opacity:1;" d="M 649.671875 636.433594 C 649.519531 642.003906 644.878906 646.519531 639.308594 646.519531 C 633.738281 646.519531 629.34375 642.003906 629.5 636.433594 C 629.65625 630.863281 634.296875 626.34375 639.867188 626.34375 C 645.4375 626.34375 649.828125 630.863281 649.671875 636.433594 "/><path style=" stroke:none;fill-rule:nonzero;fill:#ffffff;fill-opacity:1;" d="M 617.542969 658.175781 C 629.5 674.160156 651.703125 670.949219 660.925781 657.5 C 647.203125 645.996094 630.378906 647.710938 617.542969 658.175781 "/><path style=" stroke:none;fill-rule:nonzero;fill:#ffffff;fill-opacity:1;" d="M 599.964844 477.949219 C 606.109375 477.800781 610.164062 483.023438 609.035156 489.617188 L 594.914062 571.75 C 593.777344 578.34375 587.878906 583.8125 581.738281 583.960938 L 370.765625 589.164062 C 364.621094 589.324219 360.558594 584.097656 361.699219 577.503906 L 375.816406 495.367188 C 376.949219 488.777344 382.851562 483.308594 388.992188 483.160156 L 599.964844 477.949219 "/><path style=" stroke:none;fill-rule:nonzero;fill:#ffffff;fill-opacity:1;" d="M 489.945312 510.25 L 588.828125 508.5625 L 489.945312 510.25 "/><path style=" stroke:none;fill-rule:nonzero;fill:#000000;fill-opacity:1;" d="M 489.941406 511.59375 C 489.207031 511.59375 488.609375 511.007812 488.597656 510.273438 C 488.585938 509.53125 489.171875 508.917969 489.914062 508.902344 L 588.800781 507.222656 C 589.53125 507.222656 590.15625 507.800781 590.167969 508.542969 C 590.183594 509.285156 589.589844 509.898438 588.847656 509.910156 L 489.960938 511.59375 C 489.953125 511.59375 489.949219 511.59375 489.941406 511.59375 "/><path style=" stroke:none;fill-rule:nonzero;fill:#ffffff;fill-opacity:1;" d="M 449.148438 554.179688 L 583.199219 551.585938 L 449.148438 554.179688 "/><path style=" stroke:none;fill-rule:nonzero;fill:#000000;fill-opacity:1;" d="M 449.148438 555.523438 C 448.421875 555.523438 447.820312 554.9375 447.804688 554.199219 C 447.789062 553.460938 448.378906 552.847656 449.121094 552.835938 L 583.171875 550.238281 C 583.882812 550.199219 584.527344 550.816406 584.542969 551.550781 C 584.558594 552.300781 583.96875 552.910156 583.226562 552.925781 L 449.175781 555.523438 C 449.167969 555.523438 449.15625 555.523438 449.148438 555.523438 "/><path style=" stroke:none;fill-rule:nonzero;fill:#ffffff;fill-opacity:1;" d="M 554.324219 529.753906 L 584.457031 529.007812 L 554.324219 529.753906 "/><path style=" stroke:none;fill-rule:nonzero;fill:#000000;fill-opacity:1;" d="M 554.324219 531.097656 C 553.597656 531.097656 553 530.519531 552.980469 529.789062 C 552.960938 529.046875 553.546875 528.425781 554.292969 528.410156 L 584.421875 527.664062 C 585.191406 527.640625 585.78125 528.234375 585.800781 528.976562 C 585.816406 529.714844 585.234375 530.332031 584.488281 530.355469 L 554.355469 531.097656 C 554.34375 531.097656 554.332031 531.097656 554.324219 531.097656 "/><path style=" stroke:none;fill-rule:nonzero;fill:#ffffff;fill-opacity:1;" d="M 461.253906 532.210938 L 535.0625 530.226562 L 461.253906 532.210938 "/><path style=" stroke:none;fill-rule:nonzero;fill:#000000;fill-opacity:1;" d="M 461.253906 533.554688 C 460.523438 533.554688 459.925781 532.976562 459.90625 532.246094 C 459.886719 531.503906 460.476562 530.886719 461.214844 530.867188 L 535.03125 528.882812 C 535.769531 528.835938 536.386719 529.449219 536.410156 530.191406 C 536.429688 530.933594 535.84375 531.550781 535.101562 531.574219 L 461.289062 533.554688 C 461.277344 533.554688 461.265625 533.554688 461.253906 533.554688 "/><path style=" stroke:none;fill-rule:nonzero;fill:#caddff;fill-opacity:1;" d="M 443.175781 529.078125 C 442.761719 543.929688 430.390625 555.972656 415.53125 555.972656 C 400.679688 555.972656 388.972656 543.929688 389.386719 529.078125 C 389.796875 514.226562 402.171875 502.183594 417.027344 502.183594 C 431.878906 502.183594 443.589844 514.226562 443.175781 529.078125 "/><path style=" stroke:none;fill-rule:nonzero;fill:#99b9ff;fill-opacity:1;" d="M 426.445312 523.476562 C 426.289062 529.046875 421.648438 533.5625 416.082031 533.5625 C 410.511719 533.5625 406.121094 529.046875 406.277344 523.476562 C 406.425781 517.90625 411.070312 513.390625 416.640625 513.390625 C 422.210938 513.390625 426.601562 517.90625 426.445312 523.476562 "/><path style=" stroke:none;fill-rule:nonzero;fill:#99b9ff;fill-opacity:1;" d="M 394.316406 545.214844 C 406.273438 561.203125 428.476562 557.992188 437.699219 544.542969 C 423.976562 533.039062 407.15625 534.757812 394.316406 545.214844 "/><path style=" stroke:none;fill-rule:nonzero;fill:#ffffff;fill-opacity:1;" d="M 590.996094 713.867188 C 597.144531 713.867188 601.074219 719.183594 599.777344 725.75 L 583.632812 807.511719 C 582.339844 814.078125 576.308594 819.394531 570.164062 819.394531 L 359.125 819.394531 C 352.980469 819.394531 349.050781 814.078125 350.34375 807.511719 L 366.488281 725.75 C 367.785156 719.183594 373.816406 713.867188 379.960938 713.867188 L 590.996094 713.867188 "/><path style=" stroke:none;fill-rule:nonzero;fill:#ffffff;fill-opacity:1;" d="M 447.722656 746.507812 L 570.921875 746.476562 L 447.722656 746.507812 "/><path style=" stroke:none;fill-rule:nonzero;fill:#000000;fill-opacity:1;" d="M 447.722656 747.855469 C 446.980469 747.855469 446.375 747.253906 446.375 746.507812 C 446.375 745.765625 446.980469 745.164062 447.722656 745.164062 L 570.921875 745.132812 C 571.667969 745.132812 572.269531 745.734375 572.269531 746.476562 C 572.269531 747.214844 571.667969 747.820312 570.921875 747.820312 L 447.722656 747.855469 "/><path style=" stroke:none;fill-rule:nonzero;fill:#000000;fill-opacity:1;" d="M 562.980469 770 L 538.1875 770 C 537.441406 770 536.839844 769.398438 536.839844 768.652344 C 536.839844 767.914062 537.441406 767.308594 538.1875 767.308594 L 562.980469 767.308594 C 563.726562 767.308594 564.328125 767.914062 564.328125 768.652344 C 564.328125 769.398438 563.726562 770 562.980469 770 "/><path style=" stroke:none;fill-rule:nonzero;fill:#000000;fill-opacity:1;" d="M 466.464844 786.734375 L 441.664062 786.734375 C 440.921875 786.734375 440.320312 786.132812 440.320312 785.386719 C 440.320312 784.648438 440.921875 784.042969 441.664062 784.042969 L 466.464844 784.042969 C 467.207031 784.042969 467.808594 784.648438 467.808594 785.386719 C 467.808594 786.132812 467.207031 786.734375 466.464844 786.734375 "/><path style=" stroke:none;fill-rule:nonzero;fill:#000000;fill-opacity:1;" d="M 522.335938 769.996094 L 444.382812 769.996094 C 443.636719 769.996094 443.039062 769.398438 443.039062 768.652344 C 443.039062 767.914062 443.636719 767.308594 444.382812 767.308594 L 522.335938 767.308594 C 523.082031 767.308594 523.683594 767.914062 523.683594 768.652344 C 523.683594 769.398438 523.082031 769.996094 522.335938 769.996094 "/><path style=" stroke:none;fill-rule:nonzero;fill:#caddff;fill-opacity:1;" d="M 427.039062 766.648438 C 426.625 781.503906 414.25 793.542969 399.398438 793.542969 C 384.542969 793.542969 372.839844 781.503906 373.25 766.648438 C 373.664062 751.796875 386.039062 739.75 400.890625 739.75 C 415.746094 739.75 427.449219 751.796875 427.039062 766.648438 "/><path style=" stroke:none;fill-rule:nonzero;fill:#99b9ff;fill-opacity:1;" d="M 410.308594 761.042969 C 410.152344 766.613281 405.511719 771.128906 399.941406 771.128906 C 394.371094 771.128906 389.980469 766.613281 390.136719 761.042969 C 390.292969 755.472656 394.9375 750.957031 400.5 750.957031 C 406.070312 750.957031 410.464844 755.472656 410.308594 761.042969 "/><path style=" stroke:none;fill-rule:nonzero;fill:#99b9ff;fill-opacity:1;" d="M 378.179688 782.785156 C 390.136719 798.773438 412.335938 795.5625 421.566406 782.109375 C 407.835938 770.605469 391.019531 772.328125 378.179688 782.785156 "/><path style=" stroke:none;fill-rule:nonzero;fill:#000000;fill-opacity:1;" d="M 376.121094 635 C 376.710938 627.996094 376.960938 613.117188 368.65625 597.957031 C 359.710938 581.625 338.953125 561.53125 312.960938 565.058594 C 297.441406 567.160156 278.191406 577.9375 272.996094 598.058594 C 267.992188 617.449219 279.136719 633.496094 280.929688 635.992188 C 271.128906 636.390625 267.796875 639.757812 266.503906 641.789062 C 260.621094 651.023438 272.351562 671.011719 286.863281 680.414062 C 307.632812 693.878906 340.160156 689.59375 359.285156 670.460938 C 372.125 657.617188 375.214844 641.808594 376.121094 635 "/><path style=" stroke:none;fill-rule:nonzero;fill:#000000;fill-opacity:1;" d="M 269.074219 627.910156 C 269.398438 621.953125 269.839844 600.75 254.90625 586.03125 C 251.226562 582.40625 239.878906 571.21875 228.402344 574.976562 C 221.214844 577.328125 217.605469 584.351562 216.355469 587.144531 C 214.945312 585.160156 211.21875 580.523438 205.433594 579.675781 C 196.0625 578.296875 187.953125 587.824219 185.074219 595.332031 C 180.4375 607.445312 185.121094 625.492188 196.558594 628.21875 C 206.699219 630.632812 216.375 619.632812 216.875 619.046875 C 216.699219 619.863281 214.816406 629.234375 220.570312 634.484375 C 226.601562 639.984375 236.375 636.703125 238.316406 636.046875 C 246.054688 633.449219 246.980469 628.691406 253.976562 626.652344 C 259.824219 624.949219 265.402344 626.457031 269.074219 627.910156 "/><path style=" stroke:none;fill-rule:nonzero;fill:#ffffff;fill-opacity:1;" d="M 373.777344 610.378906 C 373.777344 610.378906 361.242188 618.296875 358.894531 643.355469 C 357.328125 660.070312 333.09375 652.0625 333.09375 652.0625 C 333.09375 652.0625 319.746094 645.445312 320.664062 659.753906 C 321.582031 674.0625 338.164062 667.128906 338.164062 667.128906 L 296.257812 742.164062 L 345.800781 768.683594 L 362.664062 690.785156 C 367.308594 692.472656 371.328125 693.164062 374.605469 693.328125 C 380.589844 693.625 385.980469 689.855469 387.9375 684.1875 C 400.796875 646.929688 373.777344 610.378906 373.777344 610.378906 "/><path style=" stroke:none;fill-rule:nonzero;fill:#000000;fill-opacity:1;" d="M 298.097656 741.621094 L 344.867188 766.660156 L 361.351562 690.5 C 361.433594 690.121094 361.675781 689.792969 362.015625 689.605469 C 362.359375 689.417969 362.761719 689.390625 363.128906 689.519531 C 367.113281 690.96875 370.996094 691.804688 374.667969 691.988281 C 379.972656 692.25 384.902344 688.863281 386.667969 683.746094 C 397.90625 651.171875 377.78125 618.699219 373.480469 612.304688 C 370.527344 614.824219 362.089844 623.660156 360.234375 643.480469 C 359.839844 647.6875 358.082031 650.839844 355.015625 652.84375 C 347.105469 658.019531 333.257812 653.535156 332.671875 653.34375 C 332.613281 653.324219 332.554688 653.296875 332.496094 653.269531 C 330.992188 652.53125 326.550781 650.964844 324.082031 652.613281 C 322.472656 653.6875 321.773438 656.0625 322.007812 659.667969 C 322.210938 662.882812 323.292969 665.121094 325.226562 666.320312 C 329.738281 669.125 337.570312 665.917969 337.648438 665.886719 C 338.175781 665.664062 338.789062 665.804688 339.171875 666.234375 C 339.550781 666.664062 339.621094 667.285156 339.34375 667.78125 Z M 345.800781 770.03125 C 345.582031 770.03125 345.367188 769.976562 345.171875 769.871094 L 295.621094 743.347656 C 295.304688 743.175781 295.070312 742.886719 294.96875 742.539062 C 294.867188 742.195312 294.90625 741.824219 295.082031 741.503906 L 335.335938 669.4375 C 332.160156 670.230469 327.375 670.820312 323.8125 668.609375 C 321.097656 666.921875 319.585938 663.972656 319.320312 659.839844 C 319.027344 655.199219 320.125 652.011719 322.59375 650.367188 C 326.632812 647.683594 332.714844 650.398438 333.597656 650.8125 C 334.691406 651.160156 346.996094 654.878906 353.542969 650.59375 C 355.925781 649.03125 357.238281 646.625 357.558594 643.226562 C 359.9375 617.808594 372.523438 609.578125 373.058594 609.238281 C 373.65625 608.863281 374.4375 609.011719 374.855469 609.578125 C 375.128906 609.949219 402.148438 647.136719 389.210938 684.625 C 387.054688 690.863281 381.019531 694.996094 374.539062 694.675781 C 371.042969 694.5 367.394531 693.785156 363.660156 692.550781 L 347.113281 768.96875 C 347.027344 769.382812 346.75 769.726562 346.367188 769.902344 C 346.1875 769.988281 345.996094 770.03125 345.800781 770.03125 "/><path style=" stroke:none;fill-rule:nonzero;fill:#ffffff;fill-opacity:1;" d="M 556.171875 846.996094 C 556.171875 846.996094 552.191406 817.222656 566.519531 806.875 C 577.367188 799.035156 593.164062 794.160156 599.292969 792.339844 C 601.070312 791.8125 604.382812 792.195312 605.144531 793.882812 C 605.144531 793.882812 606.519531 797.09375 601.933594 799.261719 L 588.683594 804.792969 C 587.4375 805.371094 587.253906 807.066406 588.339844 807.90625 C 591.679688 810.492188 597.75 817.667969 598.722656 821.574219 C 600.355469 828.101562 596.871094 833.890625 590.644531 839.226562 C 584.421875 844.5625 582.789062 845.578125 582.492188 846.996094 C 582.195312 848.417969 571.867188 860.492188 571.867188 860.492188 L 556.171875 846.996094 "/><path style=" stroke:none;fill-rule:nonzero;fill:#000000;fill-opacity:1;" d="M 581.183594 846.703125 C 581.183594 846.707031 581.183594 846.714844 581.179688 846.71875 C 581.183594 846.714844 581.183594 846.707031 581.183594 846.703125 Z M 557.449219 846.320312 L 571.71875 858.589844 C 576.167969 853.355469 580.707031 847.730469 581.199219 846.648438 C 581.53125 845.144531 582.632812 844.226562 586.140625 841.277344 C 587.132812 840.445312 588.332031 839.441406 589.773438 838.207031 C 596.273438 832.636719 598.769531 827.300781 597.421875 821.898438 C 596.539062 818.355469 590.707031 811.4375 587.515625 808.96875 C 586.632812 808.285156 586.179688 807.214844 586.300781 806.105469 C 586.425781 804.996094 587.105469 804.046875 588.113281 803.574219 L 601.417969 798.019531 C 604.535156 796.542969 604.035156 794.734375 603.898438 794.386719 C 603.566406 793.652344 601.148438 793.195312 599.675781 793.632812 C 585.582031 797.8125 574.6875 802.632812 567.304688 807.964844 C 554.777344 817.015625 557.023438 842.433594 557.449219 846.320312 Z M 571.867188 861.835938 C 571.546875 861.835938 571.234375 861.722656 570.988281 861.511719 L 555.292969 848.015625 C 555.046875 847.800781 554.886719 847.503906 554.84375 847.171875 C 554.675781 845.925781 550.925781 816.476562 565.734375 805.78125 C 573.359375 800.273438 584.523438 795.316406 598.910156 791.050781 C 600.949219 790.449219 605.179688 790.691406 606.371094 793.328125 C 607.035156 794.871094 607.070312 798.324219 602.507812 800.476562 L 589.207031 806.03125 C 589.039062 806.113281 588.988281 806.296875 588.976562 806.398438 C 588.960938 806.5 588.972656 806.691406 589.164062 806.839844 C 592.707031 809.582031 598.96875 817.003906 600.027344 821.246094 C 601.652344 827.734375 598.871094 833.953125 591.523438 840.25 C 590.074219 841.492188 588.871094 842.5 587.871094 843.335938 C 585.175781 845.605469 583.941406 846.636719 583.808594 847.269531 C 583.507812 848.722656 577.707031 855.738281 572.890625 861.363281 C 572.65625 861.640625 572.324219 861.808594 571.972656 861.835938 C 571.933594 861.835938 571.902344 861.835938 571.867188 861.835938 "/><path style=" stroke:none;fill-rule:nonzero;fill:#36a8e9;fill-opacity:1;" d="M 161.78125 931.601562 C 162.628906 928.359375 113.792969 894.265625 117.855469 858.59375 C 121.914062 822.917969 195.816406 742.855469 244.335938 733.0625 C 292.859375 723.265625 236.730469 894.09375 236.730469 894.09375 L 161.78125 931.601562 "/><path style=" stroke:none;fill-rule:nonzero;fill:#36a8e9;fill-opacity:1;" d="M 131.464844 986.941406 L 329.59375 986.941406 L 384.070312 790.121094 C 384.070312 790.121094 351.734375 729.851562 303.933594 724.1875 C 287.625 722.253906 273.292969 723.289062 261.488281 725.492188 C 240.535156 729.398438 223.175781 744.027344 215.648438 763.964844 L 131.464844 986.941406 "/><path style=" stroke:none;fill-rule:nonzero;fill:#36a8e9;fill-opacity:1;" d="M 333.09375 891.722656 L 412.207031 939.195312 C 454.628906 967.371094 510.464844 973.6875 538.511719 938.292969 C 552.820312 920.238281 567.527344 894.746094 579.390625 860.492188 L 552.238281 835.765625 L 500.003906 880.890625 C 491.792969 887.984375 479.441406 887.308594 472.058594 879.355469 C 443.429688 848.53125 377.238281 777.121094 363.800781 761.421875 C 346.546875 741.261719 333.09375 891.722656 333.09375 891.722656 "/><path style=" stroke:none;fill-rule:nonzero;fill:#000000;fill-opacity:1;" d="M 159.890625 912.992188 C 159.722656 912.992188 159.550781 912.957031 159.382812 912.890625 C 158.695312 912.613281 158.367188 911.828125 158.648438 911.136719 L 201.105469 806.785156 C 201.382812 806.101562 202.171875 805.769531 202.859375 806.046875 C 203.542969 806.332031 203.875 807.113281 203.59375 807.800781 L 161.136719 912.152344 C 160.925781 912.671875 160.421875 912.992188 159.890625 912.992188 "/><path style=" stroke:none;fill-rule:nonzero;fill:#000000;fill-opacity:1;" d="M 278.429688 959.578125 C 278.304688 959.578125 278.175781 959.5625 278.046875 959.523438 C 277.335938 959.3125 276.929688 958.566406 277.140625 957.851562 C 277.261719 957.4375 289.992188 915.820312 337.230469 892.675781 C 337.894531 892.351562 338.699219 892.625 339.03125 893.292969 C 339.355469 893.960938 339.082031 894.765625 338.414062 895.089844 C 292.28125 917.695312 279.839844 958.207031 279.71875 958.613281 C 279.546875 959.195312 279.011719 959.578125 278.429688 959.578125 "/><path style=" stroke:none;fill-rule:nonzero;fill:#36a8e9;fill-opacity:1;" d="M 643.605469 485.652344 C 597.589844 488.890625 557.53125 456.066406 554.117188 412.328125 C 550.707031 368.589844 585.242188 330.503906 631.257812 327.265625 C 677.261719 324.023438 717.335938 356.851562 720.742188 400.585938 C 724.152344 444.324219 689.617188 482.40625 643.605469 485.652344 Z M 751.6875 414.210938 L 780.261719 405.503906 L 777.839844 379.496094 L 748.144531 375.707031 C 746.476562 369.910156 744.261719 364.203125 741.550781 358.636719 L 761.699219 337.519531 L 745.925781 316.148438 L 718.179688 326.992188 C 713.597656 322.667969 708.703125 318.753906 703.523438 315.292969 L 709.871094 287.457031 L 684.96875 276.449219 L 666.636719 299.035156 C 660.46875 297.496094 654.167969 296.449219 647.816406 295.898438 L 638.652344 268.738281 L 611.292969 271.042969 L 607.308594 299.273438 C 601.207031 300.855469 595.203125 302.957031 589.34375 305.542969 L 567.125 286.375 L 544.652344 301.378906 L 556.058594 327.75 C 551.507812 332.109375 547.390625 336.761719 543.746094 341.679688 L 514.464844 335.644531 L 502.890625 359.324219 L 526.644531 376.746094 C 525.023438 382.613281 523.925781 388.59375 523.347656 394.640625 L 494.777344 403.347656 L 497.199219 429.351562 L 526.894531 433.140625 C 528.558594 438.941406 530.769531 444.648438 533.488281 450.214844 L 513.332031 471.332031 L 529.113281 492.703125 L 556.855469 481.855469 C 561.441406 486.183594 566.335938 490.097656 571.507812 493.554688 L 565.160156 521.390625 L 590.070312 532.398438 L 608.394531 509.816406 C 614.570312 511.347656 620.867188 512.398438 627.21875 512.949219 L 636.382812 540.105469 L 663.738281 537.808594 L 667.730469 509.578125 C 673.828125 507.992188 679.832031 505.894531 685.691406 503.308594 L 707.90625 522.46875 L 730.386719 507.472656 L 718.980469 481.097656 C 723.53125 476.738281 727.644531 472.085938 731.285156 467.171875 L 760.570312 473.203125 L 772.148438 449.527344 L 748.394531 432.105469 C 750.007812 426.238281 751.113281 420.25 751.6875 414.210938 "/><g clip-rule="nonzero" clip-path="url(#c3ea67d123)"><g clip-rule="nonzero" clip-path="url(#4e31577f86)"><path style=" stroke:none;fill-rule:nonzero;fill:#ffffff;fill-opacity:1;" d="M 569.976562 361.867188 C 568.007812 361.710938 558.339844 381.515625 528.070312 380.6875 C 497.808594 379.855469 473.527344 345.988281 473.527344 345.988281 C 473.527344 345.988281 463.078125 328.363281 455.140625 321.992188 C 447.210938 315.621094 445.964844 314.78125 445.964844 314.78125 C 445.964844 314.78125 443.476562 318.09375 445.964844 321.992188 C 448.453125 325.890625 455.320312 333.191406 455.320312 333.191406 C 455.320312 333.191406 447.753906 337.34375 451.167969 345.988281 C 455.089844 355.9375 466.148438 355.140625 466.148438 355.140625 C 466.148438 355.140625 488.589844 454.492188 581.324219 407.277344 L 569.976562 361.867188 "/></g></g><g clip-rule="nonzero" clip-path="url(#e73a79dbb8)"><g clip-rule="nonzero" clip-path="url(#3d8df17c13)"><path style=" stroke:none;fill-rule:nonzero;fill:#000000;fill-opacity:1;" d="M 466.148438 353.792969 C 466.765625 353.792969 467.316406 354.230469 467.457031 354.84375 C 467.554688 355.273438 477.546875 397.925781 510.097656 413.195312 C 529.429688 422.265625 552.863281 420.035156 579.757812 406.566406 L 569.191406 364.273438 C 569.015625 364.472656 568.832031 364.675781 568.652344 364.871094 C 563.867188 370.207031 552.675781 382.738281 528.03125 382.035156 C 497.453125 381.195312 473.4375 348.179688 472.433594 346.777344 C 472.410156 346.742188 472.390625 346.714844 472.371094 346.679688 C 472.265625 346.503906 461.945312 329.1875 454.300781 323.042969 C 449.980469 319.582031 447.664062 317.761719 446.453125 316.828125 C 446.117188 317.878906 445.960938 319.492188 447.101562 321.273438 C 449.488281 325.023438 456.230469 332.195312 456.292969 332.265625 C 456.578125 332.570312 456.707031 332.988281 456.644531 333.398438 C 456.578125 333.808594 456.328125 334.167969 455.964844 334.367188 C 455.699219 334.511719 449.492188 338.09375 452.414062 345.5 C 455.933594 354.429688 465.949219 353.804688 466.046875 353.800781 C 466.082031 353.800781 466.117188 353.792969 466.148438 353.792969 Z M 535.332031 421.351562 C 525.890625 421.351562 517.082031 419.445312 508.941406 415.625 C 478.125 401.15625 466.886719 363.277344 465.097656 356.484375 C 461.980469 356.375 453.371094 355.257812 449.917969 346.484375 C 447.320312 339.90625 450.445312 335.210938 453.269531 332.953125 C 451.214844 330.722656 446.78125 325.773438 444.832031 322.71875 C 441.875 318.085938 444.761719 314.144531 444.886719 313.976562 C 445.316406 313.402344 446.121094 313.269531 446.71875 313.667969 C 446.769531 313.703125 448.09375 314.613281 455.984375 320.949219 C 463.871094 327.28125 473.886719 343.972656 474.644531 345.25 C 475.65625 346.632812 499.355469 378.558594 528.105469 379.347656 C 551.5 379.964844 562.117188 368.136719 566.652344 363.078125 C 568.273438 361.269531 569.007812 360.425781 570.085938 360.527344 C 570.660156 360.570312 571.140625 360.980469 571.285156 361.539062 L 582.625 406.957031 C 582.777344 407.566406 582.492188 408.195312 581.933594 408.476562 C 565.082031 417.058594 549.496094 421.351562 535.332031 421.351562 "/></g></g><g clip-rule="nonzero" clip-path="url(#bc5acebbc7)"><g clip-rule="nonzero" clip-path="url(#61e26de198)"><path style=" stroke:none;fill-rule:nonzero;fill:#ffffff;fill-opacity:1;" d="M 725.117188 406.410156 C 725.117188 406.410156 719.742188 345.449219 678.808594 334.234375 C 644.882812 324.941406 603.3125 321.820312 591.347656 329.019531 C 579.371094 336.222656 548.171875 368.792969 548.171875 368.792969 L 575.742188 407.277344 C 575.742188 407.277344 569.441406 510.894531 574.421875 538.246094 C 574.421875 538.246094 605.089844 541.824219 618.097656 536.699219 C 631.113281 531.574219 673.878906 524.402344 694.328125 533.789062 L 690.609375 402.613281 L 725.117188 406.410156 "/></g></g><g clip-rule="nonzero" clip-path="url(#b63db7ec3c)"><g clip-rule="nonzero" clip-path="url(#88498345ad)"><path style=" stroke:none;fill-rule:nonzero;fill:#000000;fill-opacity:1;" d="M 575.578125 537.019531 C 580.925781 537.566406 606.359375 539.875 617.609375 535.449219 C 630.269531 530.460938 671.324219 523.378906 692.929688 531.738281 L 689.265625 402.648438 C 689.261719 402.261719 689.414062 401.882812 689.703125 401.625 C 689.988281 401.359375 690.371094 401.230469 690.761719 401.273438 L 723.589844 404.890625 C 722.355469 395.175781 714.289062 345.347656 678.453125 335.53125 C 643.5625 325.976562 603.179688 323.46875 592.035156 330.171875 C 581.398438 336.574219 554.800781 363.867188 549.914062 368.914062 L 576.835938 406.496094 C 577.015625 406.746094 577.101562 407.050781 577.085938 407.359375 C 577.023438 408.382812 570.996094 508.703125 575.578125 537.019531 Z M 596.039062 540.816406 C 585.074219 540.816406 574.996094 539.667969 574.265625 539.582031 C 573.683594 539.515625 573.207031 539.074219 573.101562 538.488281 C 568.265625 511.949219 573.855469 416.257812 574.371094 407.675781 L 547.078125 369.570312 C 546.703125 369.046875 546.753906 368.328125 547.199219 367.859375 C 548.476562 366.519531 578.664062 335.078125 590.648438 327.867188 C 603.75 319.984375 646.996094 324.125 679.167969 332.9375 C 696.332031 337.636719 709.953125 351.851562 718.566406 374.039062 C 725.027344 390.667969 726.445312 406.132812 726.460938 406.292969 C 726.496094 406.691406 726.347656 407.085938 726.058594 407.371094 C 725.773438 407.652344 725.371094 407.792969 724.96875 407.746094 L 692.003906 404.117188 L 695.675781 533.753906 C 695.691406 534.21875 695.460938 534.65625 695.074219 534.917969 C 694.683594 535.171875 694.191406 535.207031 693.769531 535.011719 C 674.320312 526.078125 632.007812 532.667969 618.597656 537.953125 C 612.957031 540.171875 604.25 540.816406 596.039062 540.816406 "/></g></g><g clip-rule="nonzero" clip-path="url(#fe1f1d31b5)"><g clip-rule="nonzero" clip-path="url(#760f0a3de7)"><path style=" stroke:none;fill-rule:nonzero;fill:#000000;fill-opacity:1;" d="M 574.726562 448.25 L 640.507812 448.25 L 619.898438 378.503906 L 554.121094 378.503906 L 574.726562 448.25 "/></g></g><g clip-rule="nonzero" clip-path="url(#552d5e225e)"><g clip-rule="nonzero" clip-path="url(#4cabe58467)"><path style=" stroke:none;fill-rule:nonzero;fill:#ffffff;fill-opacity:1;" d="M 721.535156 405.8125 L 682.871094 393.382812 C 682.871094 393.382812 687.332031 446.921875 623.390625 422.195312 C 623.390625 422.195312 625.75 415.3125 625.414062 407.277344 C 625.078125 399.242188 620.277344 407.019531 619.601562 413.550781 C 618.925781 420.082031 603.917969 417.429688 594.894531 414.859375 C 585.875 412.28125 574.039062 413.96875 594.894531 425.476562 C 615.761719 436.984375 620.328125 431.851562 620.328125 431.851562 C 620.328125 431.851562 651.328125 468.117188 684.480469 460.195312 C 725.25 450.457031 721.535156 405.8125 721.535156 405.8125 "/></g></g><g clip-rule="nonzero" clip-path="url(#0682515602)"><g clip-rule="nonzero" clip-path="url(#572aa77254)"><path style=" stroke:none;fill-rule:nonzero;fill:#000000;fill-opacity:1;" d="M 620.347656 430.480469 C 620.359375 430.480469 620.359375 430.480469 620.363281 430.480469 C 620.753906 430.484375 621.09375 430.683594 621.347656 430.976562 C 621.65625 431.332031 652.21875 466.523438 684.167969 458.886719 C 720.222656 450.277344 720.457031 413.046875 720.242188 406.808594 L 684.292969 395.25 C 684.355469 400.683594 683.425781 415.84375 672.082031 424.332031 C 661.476562 432.269531 644.929688 431.972656 622.910156 423.453125 C 622.234375 423.191406 621.886719 422.445312 622.117188 421.761719 C 622.144531 421.695312 624.390625 415.007812 624.070312 407.332031 C 624.035156 406.453125 623.941406 405.890625 623.855469 405.542969 C 622.878906 406.695312 621.308594 410.132812 620.9375 413.691406 C 620.78125 415.207031 620.007812 416.480469 618.707031 417.359375 C 613.222656 421.078125 598.808594 417.375 594.527344 416.148438 C 589.027344 414.578125 584.894531 415.1875 584.625 415.859375 C 584.621094 415.878906 584.484375 418.195312 595.546875 424.300781 C 614.671875 434.847656 619.324219 430.945312 619.371094 430.90625 C 619.625 430.621094 619.96875 430.480469 620.347656 430.480469 Z M 674.660156 462.691406 C 647.742188 462.691406 624.628906 438.640625 620.074219 433.597656 C 617.515625 434.757812 610.59375 435.671875 594.246094 426.652344 C 584.675781 421.375 580.945312 417.730469 582.140625 414.835938 C 583.496094 411.542969 590.730469 412.269531 595.261719 413.5625 C 603.132812 415.808594 613.597656 417.566406 617.195312 415.136719 C 617.84375 414.695312 618.183594 414.148438 618.265625 413.410156 C 618.65625 409.585938 621.011719 402.507812 624.109375 402.507812 C 624.132812 402.507812 624.152344 402.511719 624.171875 402.511719 C 626.5625 402.585938 626.710938 406.078125 626.757812 407.222656 C 627.019531 413.484375 625.714844 419.003906 625.042969 421.390625 C 645.558594 429.117188 660.84375 429.386719 670.46875 422.183594 C 682.984375 412.8125 681.550781 393.683594 681.535156 393.488281 C 681.496094 393.042969 681.6875 392.609375 682.039062 392.324219 C 682.390625 392.042969 682.859375 391.957031 683.285156 392.101562 L 721.949219 404.53125 C 722.460938 404.699219 722.828125 405.160156 722.875 405.703125 C 722.910156 406.167969 723.777344 417.277344 719.570312 429.78125 C 715.65625 441.398438 706.453125 456.332031 684.789062 461.503906 C 681.378906 462.320312 677.988281 462.691406 674.660156 462.691406 "/></g></g><g clip-rule="nonzero" clip-path="url(#9edf84d4a7)"><g clip-rule="nonzero" clip-path="url(#a581e7db2b)"><path style=" stroke:none;fill-rule:nonzero;fill:#000000;fill-opacity:1;" d="M 630.125 307.519531 C 632.851562 310.015625 638.195312 313.070312 642.371094 310.964844 C 645.480469 309.398438 647.21875 305.339844 647.113281 300.695312 C 648.550781 300.8125 650.433594 300.710938 651.78125 299.519531 C 653.859375 297.6875 653.46875 294.3125 653.386719 292.101562 C 653.011719 281.867188 658.953125 280.300781 657.503906 273.359375 C 656.359375 267.898438 652.070312 264.652344 651.273438 264.046875 C 647.230469 260.972656 644.488281 261.96875 637.683594 260.1875 C 626.238281 257.183594 625.875 252.25 618.335938 252.230469 C 617.898438 252.230469 607.636719 252.34375 604.152344 259.433594 C 601.320312 265.199219 604.625 272.203125 608.050781 275.886719 C 612.480469 280.65625 615.65625 278.296875 620.105469 282.296875 C 627.910156 289.320312 622.019531 300.09375 630.125 307.519531 "/></g></g><g clip-rule="nonzero" clip-path="url(#74287f5d19)"><g clip-rule="nonzero" clip-path="url(#90a7dbdcbd)"><path style=" stroke:none;fill-rule:nonzero;fill:#ffffff;fill-opacity:1;" d="M 607.285156 289.265625 L 607.734375 288.878906 C 610 286.925781 612.359375 284.660156 612.957031 281.730469 C 615.511719 269.277344 626.921875 264.757812 627.445312 276.195312 C 627.578125 279.078125 638.113281 278.929688 636.863281 281.957031 C 633.605469 289.851562 633.53125 287.730469 638.132812 290.636719 C 638.652344 290.65625 639.171875 290.773438 639.65625 291 C 642.015625 292.101562 642.855469 295.300781 641.527344 298.15625 C 640.714844 299.886719 639.296875 301.078125 637.777344 301.507812 L 637.777344 313.980469 C 637.777344 318.660156 640.605469 322.871094 644.933594 324.640625 L 649.144531 326.359375 C 649.144531 326.359375 629.507812 339.179688 609.574219 325.105469 L 612.238281 323.914062 C 616.921875 321.8125 619.996094 317.222656 620.152344 312.085938 L 620.179688 309.648438 C 618.839844 309.769531 617.539062 309.679688 616.335938 309.328125 C 610.765625 307.707031 608.914062 301.28125 609.859375 293.296875 L 607.589844 292.074219 C 606.53125 291.507812 606.371094 290.054688 607.285156 289.265625 "/></g></g><g clip-rule="nonzero" clip-path="url(#2b2c78f0c7)"><g clip-rule="nonzero" clip-path="url(#969b16692a)"><path style=" stroke:none;fill-rule:nonzero;fill:#000000;fill-opacity:1;" d="M 607.285156 289.265625 L 607.289062 289.265625 Z M 612.355469 325.332031 C 626.667969 334.128906 640.574219 329.160156 646.011719 326.535156 L 644.429688 325.882812 C 639.574219 323.898438 636.433594 319.226562 636.433594 313.980469 L 636.433594 301.507812 C 636.433594 300.90625 636.832031 300.378906 637.414062 300.214844 C 638.613281 299.875 639.699219 298.886719 640.308594 297.585938 C 641.320312 295.40625 640.777344 293.003906 639.089844 292.21875 C 638.78125 292.074219 638.445312 291.996094 638.078125 291.980469 C 637.839844 291.96875 637.613281 291.898438 637.414062 291.769531 C 636.636719 291.28125 635.996094 290.9375 635.480469 290.664062 C 632.363281 288.996094 632.882812 287.804688 634.417969 284.269531 C 634.738281 283.523438 635.128906 282.632812 635.578125 281.542969 C 635.070312 281.089844 633.160156 280.550781 631.992188 280.226562 C 629.144531 279.429688 626.210938 278.605469 626.105469 276.253906 C 625.957031 273.035156 624.867188 271.109375 623.109375 270.96875 C 620.441406 270.757812 615.796875 274.574219 614.273438 282.003906 C 613.578125 285.378906 610.988281 287.847656 608.613281 289.894531 L 608.164062 290.285156 C 608.03125 290.394531 608.027344 290.53125 608.03125 290.605469 C 608.046875 290.695312 608.089844 290.816406 608.226562 290.890625 L 610.5 292.109375 C 610.984375 292.371094 611.265625 292.902344 611.195312 293.453125 C 610.746094 297.226562 610.390625 306.195312 616.714844 308.035156 C 617.710938 308.324219 618.835938 308.417969 620.058594 308.308594 C 620.4375 308.269531 620.816406 308.402344 621.089844 308.664062 C 621.371094 308.917969 621.523438 309.277344 621.523438 309.660156 L 621.503906 312.097656 C 621.324219 317.734375 617.90625 322.84375 612.78125 325.140625 Z M 629.71875 333.003906 C 623.351562 333.003906 616.078125 331.339844 608.796875 326.199219 C 608.402344 325.925781 608.191406 325.457031 608.234375 324.972656 C 608.285156 324.492188 608.582031 324.078125 609.023438 323.875 L 611.6875 322.683594 C 615.871094 320.808594 618.671875 316.632812 618.8125 312.046875 L 618.824219 311.039062 C 617.816406 311.019531 616.859375 310.875 615.96875 310.617188 C 610.308594 308.972656 607.589844 302.957031 608.433594 294.054688 L 606.957031 293.257812 C 606.070312 292.78125 605.472656 291.902344 605.359375 290.902344 C 605.253906 289.898438 605.644531 288.910156 606.402344 288.25 L 606.851562 287.859375 C 608.898438 286.097656 611.117188 284.011719 611.636719 281.457031 C 613.398438 272.894531 619.0625 267.957031 623.320312 268.289062 C 624.523438 268.386719 628.472656 269.226562 628.789062 276.128906 C 629.066406 276.613281 631.441406 277.277344 632.714844 277.636719 C 635.191406 278.332031 637.339844 278.925781 638.070312 280.441406 C 638.378906 281.074219 638.394531 281.777344 638.109375 282.472656 C 637.632812 283.625 637.222656 284.566406 636.886719 285.339844 C 636.433594 286.382812 636 287.375 635.90625 287.8125 C 636.089844 287.9375 636.433594 288.121094 636.746094 288.289062 C 637.238281 288.554688 637.835938 288.875 638.5625 289.320312 C 639.152344 289.382812 639.710938 289.539062 640.234375 289.78125 C 643.253906 291.191406 644.382812 295.203125 642.742188 298.726562 C 641.957031 300.40625 640.671875 301.71875 639.121094 302.4375 L 639.121094 313.980469 C 639.121094 318.128906 641.609375 321.828125 645.445312 323.398438 L 649.660156 325.113281 C 650.125 325.304688 650.441406 325.738281 650.488281 326.234375 C 650.535156 326.730469 650.304688 327.214844 649.886719 327.488281 C 649.753906 327.570312 641.230469 333.003906 629.71875 333.003906 "/></g></g><g clip-rule="nonzero" clip-path="url(#6d358071f9)"><g clip-rule="nonzero" clip-path="url(#054560ea2b)"><path style=" stroke:none;fill-rule:nonzero;fill:#000000;fill-opacity:1;" d="M 620.175781 310.996094 C 619.523438 310.996094 618.949219 310.519531 618.847656 309.855469 C 618.738281 309.121094 619.238281 308.4375 619.972656 308.320312 C 626.992188 307.246094 630.191406 301.808594 630.226562 301.753906 C 630.589844 301.113281 631.417969 300.890625 632.0625 301.261719 C 632.699219 301.632812 632.925781 302.453125 632.550781 303.097656 C 632.402344 303.367188 628.664062 309.707031 620.378906 310.980469 C 620.3125 310.992188 620.242188 310.996094 620.175781 310.996094 "/></g></g><path style=" stroke:none;fill-rule:nonzero;fill:#36a8e9;fill-opacity:1;" d="M 65.722656 721.527344 C 50.398438 719.554688 39.574219 705.527344 41.546875 690.199219 L 65.179688 506.832031 C 67.15625 491.503906 81.183594 480.679688 96.511719 482.65625 C 111.835938 484.632812 122.660156 498.65625 120.6875 513.988281 L 97.054688 697.351562 C 95.078125 712.679688 81.050781 723.5 65.722656 721.527344 "/><path style=" stroke:none;fill-rule:nonzero;fill:#000000;fill-opacity:1;" d="M 119.496094 749.277344 L 84.320312 744.746094 C 72.957031 743.28125 64.933594 732.886719 66.398438 721.523438 L 97.246094 482.164062 C 98.710938 470.800781 109.109375 462.777344 120.46875 464.242188 L 155.644531 468.777344 C 167.007812 470.242188 175.03125 480.636719 173.566406 492 L 142.71875 731.355469 C 141.253906 742.71875 130.855469 750.746094 119.496094 749.277344 "/><g clip-rule="nonzero" clip-path="url(#85ac537655)"><path style=" stroke:none;fill-rule:nonzero;fill:#60b9fe;fill-opacity:1;" d="M 645.769531 648.820312 C 642.050781 648.121094 639.464844 644.769531 639.648438 640.988281 C 640.746094 617.972656 618.179688 600.558594 596.378906 606.886719 C 592.628906 607.976562 588.660156 606.121094 587.203125 602.492188 C 581.726562 588.859375 571.234375 577.796875 558.015625 571.574219 L 543.898438 571.574219 L 474.773438 639.144531 L 458.902344 660.90625 L 466.699219 697.136719 L 491.335938 716.261719 L 638.914062 716.261719 C 657.574219 716.261719 673.144531 701.417969 673.410156 682.738281 C 673.648438 666.007812 661.769531 651.824219 645.769531 648.820312 Z M 645.769531 648.820312 "/></g><g clip-rule="nonzero" clip-path="url(#3ada7f6a2b)"><path style=" stroke:none;fill-rule:nonzero;fill:#1ca8ff;fill-opacity:1;" d="M 467.855469 672.382812 C 467.613281 645.417969 490.996094 625.269531 516.492188 627.882812 C 520.746094 628.316406 524.539062 625.136719 524.777344 620.859375 C 525.976562 599.140625 539.191406 580.449219 558.015625 571.574219 C 550.53125 568.046875 542.175781 566.070312 533.359375 566.070312 C 502.242188 566.070312 477.109375 590.515625 475.433594 620.863281 C 475.195312 625.136719 471.402344 628.320312 467.148438 627.882812 C 441.652344 625.269531 418.269531 645.417969 418.511719 672.382812 C 418.730469 696.761719 438.886719 716.261719 463.234375 716.261719 L 512.578125 716.261719 C 488.226562 716.261719 468.074219 696.761719 467.855469 672.382812 Z M 467.855469 672.382812 "/></g><path style=" stroke:none;fill-rule:nonzero;fill:#dbedff;fill-opacity:1;" d="M 540.050781 655.675781 C 537.925781 655.675781 536.203125 657.398438 536.203125 659.527344 L 536.203125 660.121094 C 533.355469 658.15625 529.90625 657.003906 526.191406 657.003906 C 516.429688 657.003906 508.484375 664.957031 508.484375 674.730469 C 508.484375 684.503906 516.429688 692.457031 526.191406 692.457031 C 529.90625 692.457031 533.355469 691.304688 536.203125 689.339844 L 536.203125 689.933594 C 536.203125 692.0625 537.925781 693.785156 540.050781 693.785156 C 542.175781 693.785156 543.898438 692.0625 543.898438 689.933594 L 543.898438 659.527344 C 543.898438 657.398438 542.175781 655.675781 540.050781 655.675781 Z M 526.191406 684.753906 C 520.671875 684.753906 516.179688 680.257812 516.179688 674.730469 C 516.179688 669.203125 520.671875 664.707031 526.191406 664.707031 C 531.710938 664.707031 536.203125 669.203125 536.203125 674.730469 C 536.203125 680.257812 531.710938 684.753906 526.191406 684.753906 Z M 526.191406 684.753906 "/><path style=" stroke:none;fill-rule:nonzero;fill:#dbedff;fill-opacity:1;" d="M 580.453125 655.675781 C 578.332031 655.675781 576.609375 657.398438 576.609375 659.527344 L 576.609375 660.121094 C 573.757812 658.15625 570.308594 657.003906 566.597656 657.003906 C 556.832031 657.003906 548.890625 664.957031 548.890625 674.730469 C 548.890625 684.503906 556.832031 692.457031 566.597656 692.457031 C 570.308594 692.457031 573.757812 691.304688 576.609375 689.339844 L 576.609375 689.933594 C 576.609375 692.0625 578.332031 693.785156 580.453125 693.785156 C 582.578125 693.785156 584.300781 692.0625 584.300781 689.933594 L 584.300781 659.527344 C 584.300781 657.398438 582.578125 655.675781 580.453125 655.675781 Z M 566.59375 684.753906 C 561.074219 684.753906 556.582031 680.257812 556.582031 674.730469 C 556.582031 669.203125 561.074219 664.707031 566.59375 664.707031 C 572.117188 664.707031 576.609375 669.203125 576.609375 674.730469 C 576.609375 680.257812 572.117188 684.753906 566.59375 684.753906 Z M 566.59375 684.753906 "/><path style=" stroke:none;fill-rule:nonzero;fill:#dbedff;fill-opacity:1;" d="M 606.757812 662.613281 C 601.921875 662.613281 597.988281 659.078125 597.988281 654.730469 C 597.988281 650.382812 601.921875 646.847656 606.757812 646.847656 C 611.59375 646.847656 615.527344 650.382812 615.527344 654.730469 C 615.527344 656.859375 617.25 658.582031 619.375 658.582031 C 621.5 658.582031 623.222656 656.859375 623.222656 654.730469 C 623.222656 646.136719 615.835938 639.144531 606.757812 639.144531 C 597.679688 639.144531 590.296875 646.136719 590.296875 654.730469 C 590.296875 663.324219 597.679688 670.316406 606.757812 670.316406 C 611.59375 670.316406 615.527344 673.855469 615.527344 678.199219 C 615.527344 682.546875 611.59375 686.085938 606.757812 686.085938 C 601.921875 686.085938 597.988281 682.546875 597.988281 678.199219 C 597.988281 676.074219 596.265625 674.347656 594.140625 674.347656 C 592.019531 674.347656 590.296875 676.074219 590.296875 678.199219 C 590.296875 686.792969 597.679688 693.785156 606.757812 693.785156 C 615.835938 693.785156 623.222656 686.796875 623.222656 678.199219 C 623.222656 669.605469 615.835938 662.613281 606.757812 662.613281 Z M 606.757812 662.613281 "/><path style=" stroke:none;fill-rule:nonzero;fill:#dbedff;fill-opacity:1;" d="M 486.886719 646.847656 C 491.722656 646.847656 495.65625 650.382812 495.65625 654.730469 C 495.65625 656.859375 497.378906 658.582031 499.503906 658.582031 C 501.628906 658.582031 503.351562 656.859375 503.351562 654.730469 C 503.351562 646.136719 495.964844 639.144531 486.886719 639.144531 C 477.808594 639.144531 470.425781 646.136719 470.425781 654.730469 C 470.425781 663.324219 477.808594 670.316406 486.886719 670.316406 C 491.722656 670.316406 495.65625 673.855469 495.65625 678.199219 C 495.65625 682.546875 491.722656 686.085938 486.886719 686.085938 C 482.050781 686.085938 478.117188 682.546875 478.117188 678.199219 C 478.117188 676.074219 476.398438 674.347656 474.273438 674.347656 C 472.148438 674.347656 470.425781 676.074219 470.425781 678.199219 C 470.425781 686.792969 477.8125 693.785156 486.890625 693.785156 C 495.964844 693.785156 503.351562 686.796875 503.351562 678.199219 C 503.351562 669.605469 495.964844 662.613281 486.890625 662.613281 C 482.054688 662.613281 478.117188 659.078125 478.117188 654.730469 C 478.117188 650.382812 482.050781 646.847656 486.886719 646.847656 Z M 486.886719 646.847656 "/></g></svg>